<!-- <svg width="32" height="40" viewBox="0 0 32 40" fill="none" xmlns="http://www.w3.org/2000/svg">
<path d="M22.4997 9.979H9.16634C8.66634 9.979 8.33301 10.3123 8.33301 10.8123C8.33301 11.3123 8.66634 11.6457 9.16634 11.6457H22.4997C22.9997 11.6457 23.333 11.3123 23.333 10.8123C23.333 10.3123 22.9997 9.979 22.4997 9.979Z" fill="white"/>
<path d="M8.4999 7.81266C8.4999 8.146 8.83324 8.31266 9.16657 8.31266H22.4999C22.8332 8.31266 23.1666 8.146 23.1666 7.81266L26.4999 1.146C26.6666 0.812663 26.6666 0.479329 26.3332 0.145996C26.1666 -0.0206706 25.8332 -0.0206706 25.4999 0.145996L19.3332 3.146L16.4999 0.312663C16.1666 -0.0206706 15.6666 -0.0206706 15.3332 0.312663L12.3332 3.146L6.16657 0.145996C5.83324 -0.0206706 5.4999 -0.0206706 5.16657 0.145996C4.83324 0.312663 4.9999 0.812663 5.16657 1.146L8.4999 7.81266Z" fill="white"/>
<path d="M23.1667 13.6456C23 13.4789 22.6667 13.3123 22.5 13.3123H9.16667C9 13.3123 8.66667 13.4789 8.5 13.6456C8.16667 13.9789 0 22.6456 0 27.4789C0 34.3123 7.16667 39.9789 15.8333 39.9789C24.5 39.9789 31.6667 34.3123 31.6667 27.4789C31.6667 22.6456 23.5 13.9789 23.1667 13.6456ZM16.6667 33.3123V34.1456C16.6667 34.6456 16.3333 34.9789 15.8333 34.9789C15.3333 34.9789 15 34.6456 15 34.1456V33.3123C13.1667 32.9789 11.8333 31.8123 11.6667 30.3123C11.6667 29.8123 12 29.4789 12.5 29.4789C13 29.4789 13.3333 29.8123 13.3333 30.3123C13.3333 30.9789 14.1667 31.6456 15 31.8123V28.4789C12.8333 27.9789 11.6667 26.8123 11.6667 25.3123C11.6667 23.6456 13.1667 22.3123 15 21.9789V21.1456C15 20.6456 15.3333 20.3123 15.8333 20.3123C16.3333 20.3123 16.6667 20.6456 16.6667 21.1456V21.6456C18.5 21.9789 19.8333 23.1456 20 24.6456C20 25.1456 19.6667 25.4789 19.1667 25.4789C18.6667 25.4789 18.3333 25.1456 18.3333 24.6456C18.3333 23.9789 17.5 23.3123 16.6667 23.1456V26.4789C18.8333 26.9789 20 28.1456 20 29.6456C20 31.6456 18.5 32.9789 16.6667 33.3123Z" fill="white"/>
<path d="M16.667 28.4785V31.4785C17.667 31.3119 18.3337 30.6452 18.3337 29.9785C18.3337 29.3119 17.8337 28.8118 16.667 28.4785Z" fill="white"/>
<path d="M13.333 24.9788C13.333 25.6454 13.833 26.1454 14.9997 26.4788V23.4788C13.9997 23.6454 13.333 24.3121 13.333 24.9788Z" fill="white"/>
</svg> -->
<svg width="24" height="24" viewBox="0 0 24 24" fill="none" xmlns="http://www.w3.org/2000/svg">
<g clip-path="url(#clip0_1071_25627)">
<path d="M17 0C16.7348 0 16.4804 0.105357 16.2929 0.292893C16.1054 0.48043 16 0.734784 16 1C16 3.949 13.417 5 11 5H4C2.93913 5 1.92172 5.42143 1.17157 6.17157C0.421427 6.92172 0 7.93913 0 9L0 11C0.00218416 11.5987 0.139462 12.1893 0.401603 12.7276C0.663743 13.2659 1.04399 13.7381 1.514 14.109L5.086 22.081C5.34004 22.6521 5.75417 23.1373 6.27827 23.4779C6.80237 23.8185 7.41396 23.9998 8.039 24C8.53631 23.9997 9.02565 23.875 9.46247 23.6373C9.89929 23.3996 10.2697 23.0564 10.54 22.639C10.8104 22.2215 10.972 21.7431 11.0103 21.2473C11.0485 20.7515 10.9621 20.2539 10.759 19.8L8.559 15H11C13.417 15 16 16.051 16 19C16 19.2652 16.1054 19.5196 16.2929 19.7071C16.4804 19.8946 16.7348 20 17 20C17.2652 20 17.5196 19.8946 17.7071 19.7071C17.8946 19.5196 18 19.2652 18 19V1C18 0.734784 17.8946 0.48043 17.7071 0.292893C17.5196 0.105357 17.2652 0 17 0V0ZM8.937 20.619C9.00324 20.7686 9.03109 20.9323 9.01804 21.0954C9.005 21.2585 8.95145 21.4157 8.86227 21.5529C8.77309 21.69 8.65109 21.8027 8.50733 21.8808C8.36357 21.9589 8.20259 21.9999 8.039 22C7.80039 21.9998 7.56697 21.9304 7.36709 21.8001C7.1672 21.6698 7.00945 21.4842 6.913 21.266L4.105 15H6.359L8.937 20.619ZM16 14.6C14.5713 13.4992 12.8024 12.9331 11 13H4C3.46957 13 2.96086 12.7893 2.58579 12.4142C2.21071 12.0391 2 11.5304 2 11V9C2 8.46957 2.21071 7.96086 2.58579 7.58579C2.96086 7.21071 3.46957 7 4 7H11C12.8018 7.0683 14.5706 6.50403 16 5.405V14.6ZM23.9 15.452C23.8413 15.5696 23.7601 15.6744 23.6609 15.7606C23.5617 15.8467 23.4465 15.9125 23.3218 15.9541C23.1972 15.9957 23.0656 16.0123 22.9345 16.0031C22.8035 15.9938 22.6755 15.9588 22.558 15.9L20.558 14.9C20.3206 14.7814 20.1401 14.5735 20.0561 14.3218C19.972 14.0701 19.9915 13.7954 20.11 13.558C20.2286 13.3206 20.4365 13.1401 20.6882 13.0561C20.9399 12.972 21.2146 12.9914 21.452 13.11L23.452 14.11C23.6881 14.2285 23.8678 14.4356 23.9518 14.6861C24.0357 14.9366 24.0171 15.2102 23.9 15.447V15.452ZM20.11 6.452C20.0512 6.33448 20.0162 6.20653 20.0069 6.07546C19.9977 5.9444 20.0143 5.81279 20.0559 5.68816C20.0975 5.56353 20.1633 5.44832 20.2494 5.34912C20.3356 5.24991 20.4404 5.16866 20.558 5.11L22.558 4.11C22.7954 3.99145 23.0701 3.97205 23.3218 4.05606C23.5735 4.14008 23.7815 4.32063 23.9 4.558C24.0186 4.79537 24.038 5.07011 23.9539 5.32178C23.8699 5.57346 23.6894 5.78145 23.452 5.9L21.452 6.9C21.3345 6.95876 21.2065 6.99378 21.0755 7.00306C20.9444 7.01234 20.8128 6.99571 20.6882 6.9541C20.5635 6.9125 20.4483 6.84674 20.3491 6.76058C20.2499 6.67443 20.1687 6.56957 20.11 6.452V6.452ZM20 10C20 9.73478 20.1054 9.48043 20.2929 9.29289C20.4804 9.10536 20.7348 9 21 9H23C23.2652 9 23.5196 9.10536 23.7071 9.29289C23.8946 9.48043 24 9.73478 24 10C24 10.2652 23.8946 10.5196 23.7071 10.7071C23.5196 10.8946 23.2652 11 23 11H21C20.7348 11 20.4804 10.8946 20.2929 10.7071C20.1054 10.5196 20 10.2652 20 10Z" fill="#1DC071"/>
</g>
<defs>
<clipPath id="clip0_1071_25627">
<rect width="24" height="24" fill="white"/>
</clipPath>
</defs>
</svg>
