<!-- <svg width="24" height="24" viewBox="0 0 24 24" fill="none" xmlns="http://www.w3.org/2000/svg">
<g clip-path="url(#clip0_1071_25635)">
<path d="M4.46098 11H2.1C1.49249 11 1 10.5026 1 9.88889V2.11111C1 1.49746 1.49249 1 2.1 1H21.9C22.5075 1 23 1.49746 23 2.11111V9.88889C23 10.5026 22.5075 11 21.9 11H19.8207" stroke="#1DC071" stroke-width="2"/>
<path d="M19.4286 6H4.57143C4.25583 6 4 6.24551 4 6.54839V22.4516C4 22.7545 4.25583 23 4.57143 23H19.4286C19.7442 23 20 22.7545 20 22.4516V6.54839C20 6.24551 19.7442 6 19.4286 6Z" stroke="#1DC071" stroke-width="2"/>
<path d="M15 16.3794C15 16.8153 14.8949 17.2259 14.6848 17.6114C14.4825 17.9886 14.179 18.3029 13.7744 18.5543C13.3775 18.7973 12.9066 18.9398 12.3619 18.9817V20H11.6148V18.9691C10.8366 18.8937 10.2101 18.6423 9.73537 18.2149C9.2607 17.779 9.0156 17.1924 9 16.4549H10.751C10.7977 17.0583 11.0856 17.4229 11.6148 17.5486V15.1474C11.0545 14.9966 10.6031 14.8457 10.2607 14.6949C9.9183 14.544 9.62258 14.301 9.37358 13.9657C9.1245 13.6304 9 13.1737 9 12.5954C9 11.8663 9.24128 11.2713 9.72375 10.8103C10.214 10.3493 10.8443 10.0853 11.6148 10.0183V9H12.3619V10.0183C13.109 10.0853 13.7043 10.3284 14.1479 10.7474C14.5992 11.1665 14.8522 11.7447 14.9066 12.4823H13.144C13.1206 12.2393 13.0389 12.0297 12.8988 11.8537C12.7665 11.6693 12.5876 11.5394 12.3619 11.464V13.84C12.9455 13.9993 13.4047 14.1543 13.7393 14.3051C14.0817 14.4476 14.3774 14.6864 14.6264 15.0217C14.8755 15.3486 15 15.8011 15 16.3794ZM10.7043 12.5074C10.7043 12.784 10.7821 13.0103 10.9378 13.1863C11.0934 13.3539 11.3191 13.4922 11.6148 13.6011V11.4263C11.3346 11.4682 11.1128 11.5813 10.9494 11.7657C10.786 11.9501 10.7043 12.1973 10.7043 12.5074ZM12.3619 17.5737C12.6576 17.515 12.8872 17.3851 13.0506 17.184C13.2218 16.9829 13.3074 16.7398 13.3074 16.4549C13.3074 16.1783 13.2256 15.9562 13.0622 15.7886C12.8988 15.621 12.6654 15.4827 12.3619 15.3737V17.5737Z" fill="#1DC071"/>
</g>
<defs>
<clipPath id="clip0_1071_25635">
<rect width="24" height="24" fill="white"/>
</clipPath>
</defs>
</svg> -->

<svg width="24" height="24" viewBox="0 0 24 24" fill="none" xmlns="http://www.w3.org/2000/svg">
<g clip-path="url(#clip0_1071_25627)">
<path d="M17 0C16.7348 0 16.4804 0.105357 16.2929 0.292893C16.1054 0.48043 16 0.734784 16 1C16 3.949 13.417 5 11 5H4C2.93913 5 1.92172 5.42143 1.17157 6.17157C0.421427 6.92172 0 7.93913 0 9L0 11C0.00218416 11.5987 0.139462 12.1893 0.401603 12.7276C0.663743 13.2659 1.04399 13.7381 1.514 14.109L5.086 22.081C5.34004 22.6521 5.75417 23.1373 6.27827 23.4779C6.80237 23.8185 7.41396 23.9998 8.039 24C8.53631 23.9997 9.02565 23.875 9.46247 23.6373C9.89929 23.3996 10.2697 23.0564 10.54 22.639C10.8104 22.2215 10.972 21.7431 11.0103 21.2473C11.0485 20.7515 10.9621 20.2539 10.759 19.8L8.559 15H11C13.417 15 16 16.051 16 19C16 19.2652 16.1054 19.5196 16.2929 19.7071C16.4804 19.8946 16.7348 20 17 20C17.2652 20 17.5196 19.8946 17.7071 19.7071C17.8946 19.5196 18 19.2652 18 19V1C18 0.734784 17.8946 0.48043 17.7071 0.292893C17.5196 0.105357 17.2652 0 17 0V0ZM8.937 20.619C9.00324 20.7686 9.03109 20.9323 9.01804 21.0954C9.005 21.2585 8.95145 21.4157 8.86227 21.5529C8.77309 21.69 8.65109 21.8027 8.50733 21.8808C8.36357 21.9589 8.20259 21.9999 8.039 22C7.80039 21.9998 7.56697 21.9304 7.36709 21.8001C7.1672 21.6698 7.00945 21.4842 6.913 21.266L4.105 15H6.359L8.937 20.619ZM16 14.6C14.5713 13.4992 12.8024 12.9331 11 13H4C3.46957 13 2.96086 12.7893 2.58579 12.4142C2.21071 12.0391 2 11.5304 2 11V9C2 8.46957 2.21071 7.96086 2.58579 7.58579C2.96086 7.21071 3.46957 7 4 7H11C12.8018 7.0683 14.5706 6.50403 16 5.405V14.6ZM23.9 15.452C23.8413 15.5696 23.7601 15.6744 23.6609 15.7606C23.5617 15.8467 23.4465 15.9125 23.3218 15.9541C23.1972 15.9957 23.0656 16.0123 22.9345 16.0031C22.8035 15.9938 22.6755 15.9588 22.558 15.9L20.558 14.9C20.3206 14.7814 20.1401 14.5735 20.0561 14.3218C19.972 14.0701 19.9915 13.7954 20.11 13.558C20.2286 13.3206 20.4365 13.1401 20.6882 13.0561C20.9399 12.972 21.2146 12.9914 21.452 13.11L23.452 14.11C23.6881 14.2285 23.8678 14.4356 23.9518 14.6861C24.0357 14.9366 24.0171 15.2102 23.9 15.447V15.452ZM20.11 6.452C20.0512 6.33448 20.0162 6.20653 20.0069 6.07546C19.9977 5.9444 20.0143 5.81279 20.0559 5.68816C20.0975 5.56353 20.1633 5.44832 20.2494 5.34912C20.3356 5.24991 20.4404 5.16866 20.558 5.11L22.558 4.11C22.7954 3.99145 23.0701 3.97205 23.3218 4.05606C23.5735 4.14008 23.7815 4.32063 23.9 4.558C24.0186 4.79537 24.038 5.07011 23.9539 5.32178C23.8699 5.57346 23.6894 5.78145 23.452 5.9L21.452 6.9C21.3345 6.95876 21.2065 6.99378 21.0755 7.00306C20.9444 7.01234 20.8128 6.99571 20.6882 6.9541C20.5635 6.9125 20.4483 6.84674 20.3491 6.76058C20.2499 6.67443 20.1687 6.56957 20.11 6.452V6.452ZM20 10C20 9.73478 20.1054 9.48043 20.2929 9.29289C20.4804 9.10536 20.7348 9 21 9H23C23.2652 9 23.5196 9.10536 23.7071 9.29289C23.8946 9.48043 24 9.73478 24 10C24 10.2652 23.8946 10.5196 23.7071 10.7071C23.5196 10.8946 23.2652 11 23 11H21C20.7348 11 20.4804 10.8946 20.2929 10.7071C20.1054 10.5196 20 10.2652 20 10Z" fill="#1DC071"/>
</g>
<defs>
<clipPath id="clip0_1071_25627">
<rect width="24" height="24" fill="white"/>
</clipPath>
</defs>
</svg>
